PathFileType	4	(X/Y/Z)	C:/Users/beibeiliu/ov580/test_trc\sequence.35_training_dense_right.trc
DataRate	CameraRate	NumFrames	NumMarkers	Units	OrigDataRate	OrigDataStartFrame	OrigNumFrames
120	120	10	19	mm	120	1	169
Frame#	Time	ThumbCMC			ThumbMCP			ThumbIP			ThumbTip			IndexMCP			IndexPIP			IndexTip			MiddleMCP			MiddlePIP			MiddleTip			RingMCP			RingPIP			RingTip			PinkyMCP			PinkyPIP			PinkyTip			BackHand1			BackHand2			BackHand3	
		X0	Y0	Z0	X1	Y1	Z1	X2	Y2	Z2	X3	Y3	Z3	X4	Y4	Z4	X5	Y5	Z5	X6	Y6	Z6	X7	Y7	Z7	X8	Y8	Z8	X9	Y9	Z9	X10	Y10	Z10	X11	Y11	Z11	X12	Y12	Z12	X13	Y13	Z13	X14	Y14	Z14	X15	Y15	Z15	X16	Y16	Z16	X17	Y17	Z17	X18	Y18	Z18	
0	0	57.7603	83.0896	9.95398	47.4137	72.4481	-21.0416	53.8629	70.306	-45.6608	63.4991	67.4249	-64.679	74.773	120.207	-42.8424	76.3599	126.27	-67.5872	73.4445	133.199	-84.2491	101.503	120.637	-43.4375	103.34	126.773	-66.315	113.301	132.889	-89.3409	117.314	113.532	-35.1828	125.251	120.882	-55.3264	134.923	127.846	-73.2082	130.813	102.974	-20.5199	142.432	109.841	-30.9316	153.217	119.117	-35.6697	105.027	105.527	6.16848	98.4774	100.771	32.5378	76.9743	107.233	15.3476	
1	0.00833333	56.3139	88.3279	5.69198	49.7707	76.8521	-17.6625	54.9067	75.1877	-45.2875	59.7335	68.8929	-64.2921	74.89	123.595	-41.8043	74.2688	132.05	-65.3866	78.0872	139.091	-85.7165	97.5487	123.98	-42.3321	103.425	131.851	-68.9984	112.989	138.479	-89.653	115.757	118.167	-36.7151	128.421	121.563	-50.8448	133.61	130.696	-72.4237	129.722	104.802	-19.762	143.538	112.83	-30.8461	152.907	124.061	-40.1969	104.6	107.628	6.66228	98.759	102.36	32.4071	76.9609	112.569	13.6448	
2	0.0166667	54.3925	90.5475	11.3311	50.8911	81.5527	-18.6287	53.2386	78.3095	-44.1543	62.9777	74.2855	-62.1488	76.5507	127.689	-40.88	74.3772	134.491	-60.9575	79.7066	141.595	-81.5816	100.001	129.429	-45.454	104.407	135.82	-67.1218	115.153	142.111	-89.7596	119.001	119.61	-33.6658	125.593	124.988	-50.9603	134.964	131.49	-70.8762	131.159	108.774	-19.1704	143.078	112.491	-29.2677	152.333	123.023	-37.3056	106.64	110.916	6.88703	103.248	106.558	31.6738	79.8454	115.666	16.6332	
3	0.025	55.451	92.4325	9.67662	48.6374	80.9979	-16.0478	55.6082	78.8685	-43.5611	63.6164	72.299	-62.6821	76.1871	127.142	-38.6654	77.4355	134.861	-64.4763	83.348	140.719	-82.5874	105.553	127.382	-41.7296	110.922	134.186	-66.3841	119.493	139.055	-86.7574	119.931	120.461	-34.2707	130.073	125.243	-53.1738	135.705	129.816	-71.369	132.044	106.828	-17.7132	142.319	110.303	-28.2194	157.343	122.568	-38.7432	105.84	112.732	8.06185	102.857	103.921	34.2193	78.7364	116.859	13.4467	
4	0.0333333	55.5023	93.1299	9.84948	50.4532	80.9517	-14.6803	54.1441	77.4722	-40.6842	63.3584	71.091	-60.835	79.8999	127.006	-40.91	78.2628	132.678	-60.6243	84.8801	137.111	-81.6921	101.819	125.303	-38.5294	110.588	131.776	-65.778	118.125	137.621	-84.3968	118.882	114.821	-30.1072	128.742	122.527	-53.9756	137.794	127.801	-71.4078	133.153	101.615	-15.3331	146.136	109.221	-30.9933	158.374	116.938	-40.9394	107.042	109.015	11.6734	107.002	104.118	36.3002	84.6055	113.708	18.7183	
5	0.0416667	55.0641	92.1254	10.3176	50.0981	80.8426	-12.5241	49.9986	76.3366	-34.1188	53.8356	71.6627	-55.9445	75.0831	124.034	-39.7499	80.9312	129.567	-62.5576	77.4063	136.52	-84.9978	102.914	122.421	-37.9282	110.861	129.01	-61.1838	116.009	135.247	-82.4175	117.722	113.993	-33.2595	129.129	117.908	-50.0944	132.931	122.79	-68.918	134.747	98.5841	-18.7249	141.158	102.494	-31.3355	158.913	110.328	-43.1831	110.588	106.196	9.36449	104.033	102.629	32.9176	84.2007	113.49	15.3626	
6	0.05	52.7326	92.0009	13.4566	39.0584	83.4923	-8.68214	34.66	81.0371	-33.9188	32.4261	75.9801	-52.3856	72.2588	121.937	-39.6911	71.242	128.516	-63.1025	77.3443	132.245	-83.2131	96.8051	120.578	-39.687	104.577	125.847	-61.9762	113.438	132.407	-83.8516	117.081	107.796	-33.1797	125.585	111.307	-51.4932	131.862	115.753	-69.1161	126.277	91.449	-19.9989	140.698	90.4893	-35.0925	154.398	95.4404	-49.4711	103.405	103.558	10.7602	98.7325	99.1646	33.885	79.2264	111.407	15.5517	
7	0.0583333	50.066	95.3823	19.7495	35.7519	90.374	-3.65085	26.078	90.5187	-24.854	16.5448	90.1742	-43.4167	72.5007	122.651	-39.1232	76.0353	126.588	-63.9364	77.5607	133.713	-84.4176	100.672	113.968	-41.3699	107.73	119.681	-63.1229	121.397	125.671	-85.6058	116.402	97.3739	-35.4233	125.716	99.4513	-54.2614	128.804	104.771	-71.5567	122.497	79.5377	-20.7806	132.102	76.222	-36.3087	147.981	73.6018	-51.4052	104.539	99.7411	5.69057	100.515	94.3831	35.0752	79.646	110.797	18.534	
8	0.0666667	62.0883	102.556	15.7425	42.6464	101.054	-0.421887	32.1841	104.751	-17.7213	18.1286	109.821	-31.7382	87.9325	120.821	-40.3162	90.0284	127.284	-61.5927	93.8477	130.741	-79.3811	111.338	104.534	-40.3615	121.281	107.891	-65.2649	130.21	110.857	-80.7385	116.834	86.6188	-34.0469	124.874	84.5211	-55.2392	133.126	84.1129	-77.7193	121.722	63.0716	-24.4834	125.964	56.9047	-42.8702	134.206	46.4813	-54.7649	114.323	87.041	5.81167	110.231	84.8302	30.7528	94.0454	105.647	18.3765	
9	0.075	73.7144	112.082	20.449	54.4658	113.603	-0.0237882	44.3717	122.179	-15.1093	32.9325	132.785	-28.355	105.164	117.443	-40.4278	105.38	125.702	-58.6246	111.857	129.287	-82.405	120.639	99.1261	-43.9088	130.119	96.7251	-66.4312	139.949	97.5728	-82.9679	118.302	75.4021	-36.6478	121.884	72.5648	-59.4765	123.389	69.404	-82.0952	113.793	49.6667	-26.9992	112.832	43.6854	-45.1433	114.847	36.0928	-62.0738	113.672	80.634	5.57328	114.471	76.5552	27.6376	108.909	100.889	18.0144	
